<svg width="40" height="40" viewBox="0 0 40 40" fill="none" xmlns="http://www.w3.org/2000/svg">
<path d="M24.116 1.83537C22.1106 0.611834 21.108 6.10352e-05 20 6.10352e-05C18.8921 6.10352e-05 17.8894 0.611836 15.884 1.83537L7.76806 6.78725C3.9739 9.10224 2.0768 10.2597 1.0384 12.1247C0 13.9897 0 16.2395 0 20.739V29.1532C0 31.6749 0 32.9359 0.272594 33.9705C1.01233 36.7777 3.16872 38.9706 5.92944 39.7229C6.94678 40.0001 8.18674 40.0001 10.6667 40.0001C11.9066 40.0001 12.5266 40.0001 13.0353 39.8614C14.4156 39.4853 15.4938 38.3889 15.8637 36.9852C16 36.468 16 35.8375 16 34.5765V31.8649C16 29.9474 16 28.9887 16.5858 28.393C17.1716 27.7973 18.1144 27.7973 20 27.7973C21.8856 27.7973 22.8284 27.7973 23.4142 28.393C24 28.9887 24 29.9474 24 31.8649V34.5765C24 35.8375 24 36.468 24.1362 36.9852C24.5062 38.3889 25.5844 39.4853 26.9648 39.8614C27.4734 40.0001 28.0934 40.0001 29.3334 40.0001C31.8132 40.0001 33.0532 40.0001 34.0706 39.7229C36.8312 38.9706 38.9876 36.7777 39.7274 33.9705C40 32.9359 40 31.6749 40 29.1532V20.739C40 16.2395 40 13.9897 38.9616 12.1247C37.9232 10.2597 36.0262 9.10224 32.232 6.78725L24.116 1.83537Z" fill="#0B0D12"/>
</svg>
